<svg width="26" height="26" viewBox="0 0 26 26" fill="none" xmlns="http://www.w3.org/2000/svg">
<g filter="url(#filter0_d_1344_3679)">
<rect x="2" width="22" height="22" rx="11" fill="#7939EF"/>
<g clip-path="url(#clip0_1344_3679)">
<path d="M16.5567 11.2918L16.0858 11.0001L16.5571 10.7085C16.8843 10.5139 17.1377 10.2163 17.2775 9.86223C17.365 9.62812 17.3977 9.37705 17.3729 9.12835C17.3481 8.87964 17.2665 8.63995 17.1345 8.42774C17.0025 8.21552 16.8235 8.03644 16.6113 7.9043C16.3992 7.77216 16.1595 7.69049 15.9108 7.66556C15.5314 7.63453 15.1524 7.73038 14.8333 7.93806L14.6663 8.04181V7.73848C14.6733 7.31546 14.5237 6.90477 14.2463 6.58535C13.9689 6.26593 13.5832 6.06032 13.1633 6.00806C12.9318 5.9852 12.698 6.01108 12.477 6.08404C12.2561 6.157 12.0528 6.27541 11.8804 6.43167C11.708 6.58792 11.5702 6.77855 11.4759 6.99128C11.3816 7.20401 11.3329 7.43412 11.3329 7.66681V8.04181L11.1663 7.93765C10.8473 7.72937 10.4681 7.63307 10.0883 7.6639C9.83961 7.6886 9.59987 7.77009 9.38761 7.90209C9.17535 8.03408 8.99623 8.21306 8.86406 8.42521C8.7319 8.63737 8.65021 8.87704 8.62531 9.12576C8.60041 9.37447 8.63295 9.62558 8.72043 9.85973C8.86027 10.2139 9.11383 10.5116 9.44126 10.706L9.91334 11.0001L9.44209 11.2918C9.11488 11.4864 8.8615 11.784 8.72168 12.1381C8.63403 12.3724 8.60139 12.6236 8.62629 12.8726C8.65118 13.1215 8.73295 13.3613 8.86526 13.5736C8.99758 13.7859 9.17691 13.9649 9.38941 14.0969C9.60191 14.2289 9.8419 14.3102 10.0908 14.3347C10.4694 14.3657 10.8476 14.2703 11.1663 14.0635L11.3329 13.9585V14.3335C11.3329 14.7755 11.5085 15.1994 11.8211 15.512C12.1336 15.8246 12.5576 16.0001 12.9996 16.0001C13.4416 16.0001 13.8655 15.8246 14.1781 15.512C14.4907 15.1994 14.6663 14.7755 14.6663 14.3335V13.9585L14.8329 14.0631C15.1514 14.27 15.5294 14.3657 15.9079 14.3351C16.1568 14.3105 16.3967 14.2291 16.6091 14.0971C16.8215 13.965 17.0007 13.786 17.1329 13.5737C17.2652 13.3614 17.3469 13.1216 17.3717 12.8728C17.3966 12.6239 17.3639 12.3727 17.2763 12.1385C17.1367 11.7844 16.8836 11.4867 16.5567 11.2918ZM16.4271 13.1326C16.3151 13.3123 16.1364 13.4401 15.9302 13.488C15.724 13.5359 15.5072 13.5 15.3275 13.3881L14.4696 12.8539C14.4064 12.8146 14.3339 12.793 14.2596 12.7912C14.1853 12.7894 14.1118 12.8076 14.0469 12.8437C13.9819 12.8799 13.9278 12.9328 13.8902 12.997C13.8526 13.0611 13.8328 13.1341 13.8329 13.2085V14.3335C13.8329 14.5545 13.7451 14.7665 13.5888 14.9227C13.4326 15.079 13.2206 15.1668 12.9996 15.1668C12.7786 15.1668 12.5666 15.079 12.4103 14.9227C12.2541 14.7665 12.1663 14.5545 12.1663 14.3335V13.2085C12.1662 13.1342 12.1464 13.0613 12.1087 12.9972C12.071 12.9332 12.0169 12.8804 11.952 12.8444C11.887 12.8083 11.8136 12.7902 11.7394 12.792C11.6651 12.7939 11.5927 12.8155 11.5296 12.8547L10.6717 13.3897C10.5827 13.4451 10.4837 13.4825 10.3803 13.4996C10.2769 13.5167 10.1711 13.5133 10.069 13.4896C9.96696 13.4659 9.87055 13.4223 9.78532 13.3613C9.70009 13.3003 9.6277 13.2231 9.5723 13.1341C9.5169 13.0451 9.47956 12.9461 9.46243 12.8427C9.44529 12.7393 9.44869 12.6336 9.47243 12.5315C9.49616 12.4294 9.53977 12.333 9.60077 12.2477C9.66177 12.1625 9.73896 12.0901 9.82793 12.0347L10.9217 11.3539C10.982 11.3165 11.0317 11.2644 11.0662 11.2024C11.1007 11.1404 11.1188 11.0707 11.1188 10.9997C11.1188 10.9288 11.1007 10.859 11.0662 10.7971C11.0317 10.7351 10.982 10.6829 10.9217 10.6456L9.82793 9.96515C9.64824 9.85326 9.52036 9.67457 9.47243 9.4684C9.42449 9.26223 9.46041 9.04546 9.5723 8.86577C9.68419 8.68609 9.86287 8.55821 10.069 8.51027C10.2752 8.46233 10.492 8.49826 10.6717 8.61015L11.5296 9.14431C11.5926 9.18348 11.6649 9.20512 11.7391 9.207C11.8132 9.20887 11.8865 9.19092 11.9514 9.15499C12.0163 9.11906 12.0704 9.06645 12.1082 9.00261C12.146 8.93876 12.166 8.86599 12.1663 8.79181V7.7114C12.1618 7.50854 12.2288 7.31057 12.3555 7.15213C12.4823 6.99368 12.6607 6.88487 12.8596 6.84473C12.9792 6.82435 13.1018 6.83033 13.2189 6.86226C13.3359 6.89418 13.4446 6.95129 13.5373 7.02958C13.63 7.10787 13.7045 7.20546 13.7555 7.31552C13.8066 7.42559 13.833 7.54548 13.8329 7.66681V8.79181C13.833 8.86606 13.8529 8.93894 13.8907 9.0029C13.9284 9.06686 13.9825 9.11959 14.0474 9.15562C14.1123 9.19165 14.1857 9.20968 14.2599 9.20783C14.3341 9.20599 14.4065 9.18435 14.4696 9.14515L15.3275 8.6114C15.4165 8.556 15.5155 8.51866 15.6189 8.50152C15.7223 8.48439 15.8281 8.48778 15.9301 8.51152C16.0322 8.53526 16.1286 8.57887 16.2139 8.63987C16.2991 8.70086 16.3715 8.77805 16.4269 8.86702C16.4823 8.95599 16.5196 9.055 16.5368 9.1584C16.5539 9.2618 16.5505 9.36756 16.5268 9.46965C16.503 9.57174 16.4594 9.66815 16.3984 9.75338C16.3374 9.83861 16.2602 9.911 16.1713 9.9664L15.0775 10.6472C15.0172 10.6846 14.9675 10.7367 14.933 10.7987C14.8984 10.8607 14.8803 10.9305 14.8803 11.0014C14.8803 11.0723 14.8984 11.1421 14.933 11.2041C14.9675 11.2661 15.0172 11.3182 15.0775 11.3556L16.1713 12.0364C16.2603 12.0917 16.3375 12.1641 16.3986 12.2493C16.4596 12.3345 16.5033 12.4309 16.527 12.5329C16.5508 12.635 16.5542 12.7408 16.537 12.8442C16.5199 12.9476 16.4825 13.0466 16.4271 13.1356V13.1326Z" fill="white"/>
</g>
</g>
<defs>
<filter id="filter0_d_1344_3679" x="0" y="0" width="26" height="26" filterUnits="userSpaceOnUse" color-interpolation-filters="sRGB">
<feFlood flood-opacity="0" result="BackgroundImageFix"/>
<feColorMatrix in="SourceAlpha" type="matrix" values="0 0 0 0 0 0 0 0 0 0 0 0 0 0 0 0 0 0 127 0" result="hardAlpha"/>
<feOffset dy="2"/>
<feGaussianBlur stdDeviation="1"/>
<feComposite in2="hardAlpha" operator="out"/>
<feColorMatrix type="matrix" values="0 0 0 0 0 0 0 0 0 0 0 0 0 0 0 0 0 0 0.1 0"/>
<feBlend mode="normal" in2="BackgroundImageFix" result="effect1_dropShadow_1344_3679"/>
<feBlend mode="normal" in="SourceGraphic" in2="effect1_dropShadow_1344_3679" result="shape"/>
</filter>
<clipPath id="clip0_1344_3679">
<rect width="10" height="10" fill="white" transform="translate(8 6)"/>
</clipPath>
</defs>
</svg>
