<svg width="46" height="28" viewBox="0 0 46 28" fill="none" xmlns="http://www.w3.org/2000/svg">
<g clip-path="url(#clip0_924_29815)">
<path d="M14.666 6.66675C14.666 6.48994 14.7362 6.32037 14.8613 6.19535C14.9863 6.07033 15.1559 6.00009 15.3327 6.00009C17.1002 6.00203 18.7947 6.70503 20.0446 7.95485C21.2944 9.20468 21.9974 10.8992 21.9993 12.6668C21.9993 12.8436 21.9291 13.0131 21.8041 13.1382C21.679 13.2632 21.5095 13.3334 21.3327 13.3334C21.1558 13.3334 20.9863 13.2632 20.8612 13.1382C20.7362 13.0131 20.666 12.8436 20.666 12.6668C20.6644 11.2528 20.102 9.89712 19.1021 8.89727C18.1023 7.89742 16.7467 7.33501 15.3327 7.33342C15.1559 7.33342 14.9863 7.26318 14.8613 7.13816C14.7362 7.01314 14.666 6.84357 14.666 6.66675ZM15.3327 10.0001C16.0399 10.0001 16.7182 10.281 17.2183 10.7811C17.7184 11.2812 17.9993 11.9595 17.9993 12.6668C17.9993 12.8436 18.0696 13.0131 18.1946 13.1382C18.3196 13.2632 18.4892 13.3334 18.666 13.3334C18.8428 13.3334 19.0124 13.2632 19.1374 13.1382C19.2624 13.0131 19.3327 12.8436 19.3327 12.6668C19.3316 11.6062 18.9098 10.5894 18.1599 9.8395C17.41 9.08958 16.3932 8.66781 15.3327 8.66675C15.1559 8.66675 14.9863 8.73699 14.8613 8.86202C14.7362 8.98704 14.666 9.15661 14.666 9.33342C14.666 9.51023 14.7362 9.6798 14.8613 9.80483C14.9863 9.92985 15.1559 10.0001 15.3327 10.0001ZM21.3947 17.1594C21.781 17.5468 21.9979 18.0716 21.9979 18.6188C21.9979 19.1659 21.781 19.6907 21.3947 20.0781L20.788 20.7774C15.328 26.0048 2.04134 12.7214 7.188 7.24409L7.95467 6.57742C8.34252 6.20187 8.86262 5.99412 9.40247 5.99911C9.94232 6.0041 10.4585 6.22143 10.8393 6.60409C10.86 6.62475 12.0953 8.22942 12.0953 8.22942C12.4619 8.61451 12.6659 9.12604 12.6651 9.65769C12.6642 10.1893 12.4585 10.7002 12.0907 11.0841L11.3187 12.0548C11.7459 13.0928 12.374 14.0363 13.167 14.8308C13.96 15.6254 14.9021 16.2554 15.9393 16.6848L16.916 15.9081C17.2999 15.5406 17.8107 15.3351 18.3422 15.3343C18.8737 15.3336 19.385 15.5376 19.77 15.9041C19.77 15.9041 21.374 17.1388 21.3947 17.1594ZM20.4773 18.1288C20.4773 18.1288 18.882 16.9014 18.8613 16.8808C18.724 16.7446 18.5384 16.6682 18.345 16.6682C18.1516 16.6682 17.966 16.7446 17.8287 16.8808C17.8107 16.8994 16.466 17.9708 16.466 17.9708C16.3754 18.0429 16.2675 18.0902 16.1531 18.1079C16.0386 18.1257 15.9215 18.1133 15.8133 18.0721C14.4696 17.5718 13.2492 16.7886 12.2346 15.7755C11.22 14.7624 10.4349 13.543 9.93267 12.2001C9.88813 12.0904 9.87361 11.9708 9.8906 11.8536C9.90759 11.7365 9.95548 11.626 10.0293 11.5334C10.0293 11.5334 11.1007 10.1881 11.1187 10.1708C11.2548 10.0334 11.3313 9.84783 11.3313 9.65442C11.3313 9.46101 11.2548 9.27543 11.1187 9.13809C11.098 9.11809 9.87067 7.52142 9.87067 7.52142C9.73127 7.39643 9.54934 7.32949 9.36217 7.33432C9.175 7.33915 8.99676 7.4154 8.864 7.54742L8.09734 8.21409C4.33601 12.7368 15.85 23.6121 19.8133 19.8668L20.4207 19.1668C20.563 19.0349 20.6485 18.8529 20.659 18.6592C20.6696 18.4655 20.6044 18.2753 20.4773 18.1288Z" fill="#7939EF"/>
</g>
<path d="M36.4726 11.4736C36.4106 11.4111 36.3369 11.3615 36.2556 11.3276C36.1744 11.2938 36.0872 11.2764 35.9992 11.2764C35.9112 11.2764 35.8241 11.2938 35.7428 11.3276C35.6616 11.3615 35.5879 11.4111 35.5259 11.4736L32.4726 14.5269C32.4106 14.5894 32.3369 14.639 32.2556 14.6728C32.1744 14.7067 32.0872 14.7241 31.9992 14.7241C31.9112 14.7241 31.8241 14.7067 31.7428 14.6728C31.6616 14.639 31.5879 14.5894 31.5259 14.5269L28.4726 11.4736C28.4106 11.4111 28.3369 11.3615 28.2556 11.3276C28.1744 11.2938 28.0872 11.2764 27.9992 11.2764C27.9112 11.2764 27.8241 11.2938 27.7428 11.3276C27.6616 11.3615 27.5879 11.4111 27.5259 11.4736C27.4017 11.5985 27.332 11.7674 27.332 11.9436C27.332 12.1197 27.4017 12.2887 27.5259 12.4136L30.5859 15.4736C30.9609 15.8481 31.4692 16.0585 31.9992 16.0585C32.5292 16.0585 33.0376 15.8481 33.4126 15.4736L36.4726 12.4136C36.5967 12.2887 36.6664 12.1197 36.6664 11.9436C36.6664 11.7674 36.5967 11.5985 36.4726 11.4736Z" fill="#7939EF" fill-opacity="0.8"/>
<defs>
<clipPath id="clip0_924_29815">
<rect width="16" height="16" fill="white" transform="translate(6 6)"/>
</clipPath>
</defs>
</svg>
