<svg width="16" height="16" viewBox="0 0 16 16" fill="none" xmlns="http://www.w3.org/2000/svg">
<g clip-path="url(#clip0_1307_21896)">
<path d="M15.9998 7.49838C15.9034 5.93839 15.3525 4.44072 14.4152 3.18999C13.4779 1.93927 12.1951 0.990171 10.7249 0.459706C9.25473 -0.0707594 7.66144 -0.159402 6.14148 0.204706C4.62152 0.568814 3.24134 1.36976 2.17108 2.50879C1.10082 3.64782 0.38727 5.07515 0.118404 6.61481C-0.150462 8.15448 0.0371069 9.73917 0.657987 11.1735C1.27887 12.6079 2.30591 13.8292 3.61251 14.6869C4.91911 15.5446 6.44815 16.0012 8.01111 16.0004H12.6664C13.5502 15.9995 14.3976 15.648 15.0225 15.0231C15.6474 14.3982 15.9989 13.5508 15.9998 12.667V7.49838ZM14.6664 12.667C14.6664 13.1975 14.4557 13.7062 14.0807 14.0813C13.7056 14.4563 13.1969 14.667 12.6664 14.667H8.01111C7.0704 14.6666 6.14034 14.4679 5.28157 14.0839C4.42281 13.6999 3.65463 13.1392 3.02711 12.4384C2.39656 11.7379 1.92306 10.9107 1.63837 10.0122C1.35368 9.11378 1.26437 8.16484 1.37644 7.22904C1.5534 5.753 2.21657 4.37783 3.2614 3.32033C4.30624 2.26282 5.67331 1.58312 7.14711 1.38838C7.4346 1.35234 7.72404 1.33409 8.01378 1.33371C9.56743 1.32947 11.073 1.87231 12.2664 2.86704C12.9635 3.44634 13.5356 4.16114 13.9481 4.96813C14.3607 5.77511 14.6051 6.65747 14.6664 7.56171V12.667Z" fill="#141414"/>
<path d="M5.33366 5.99935H8.00033C8.17714 5.99935 8.34671 5.92911 8.47173 5.80408C8.59675 5.67906 8.66699 5.50949 8.66699 5.33268C8.66699 5.15587 8.59675 4.9863 8.47173 4.86128C8.34671 4.73625 8.17714 4.66602 8.00033 4.66602H5.33366C5.15685 4.66602 4.98728 4.73625 4.86225 4.86128C4.73723 4.9863 4.66699 5.15587 4.66699 5.33268C4.66699 5.50949 4.73723 5.67906 4.86225 5.80408C4.98728 5.92911 5.15685 5.99935 5.33366 5.99935Z" fill="#141414"/>
<path d="M10.667 7.33398H5.33366C5.15685 7.33398 4.98728 7.40422 4.86225 7.52925C4.73723 7.65427 4.66699 7.82384 4.66699 8.00065C4.66699 8.17747 4.73723 8.34704 4.86225 8.47206C4.98728 8.59709 5.15685 8.66733 5.33366 8.66733H10.667C10.8438 8.66733 11.0134 8.59709 11.1384 8.47206C11.2634 8.34704 11.3337 8.17747 11.3337 8.00065C11.3337 7.82384 11.2634 7.65427 11.1384 7.52925C11.0134 7.40422 10.8438 7.33398 10.667 7.33398Z" fill="#141414"/>
<path d="M10.667 10H5.33366C5.15685 10 4.98728 10.0702 4.86225 10.1953C4.73723 10.3203 4.66699 10.4899 4.66699 10.6667C4.66699 10.8435 4.73723 11.0131 4.86225 11.1381C4.98728 11.2631 5.15685 11.3333 5.33366 11.3333H10.667C10.8438 11.3333 11.0134 11.2631 11.1384 11.1381C11.2634 11.0131 11.3337 10.8435 11.3337 10.6667C11.3337 10.4899 11.2634 10.3203 11.1384 10.1953C11.0134 10.0702 10.8438 10 10.667 10Z" fill="#141414"/>
</g>
<defs>
<clipPath id="clip0_1307_21896">
<rect width="16" height="16" fill="white"/>
</clipPath>
</defs>
</svg>
