<svg width="12" height="12" viewBox="0 0 12 12" fill="none" xmlns="http://www.w3.org/2000/svg">
<path d="M11.1 1.08133C10.8189 0.846298 10.4895 0.676029 10.1352 0.582616C9.78094 0.489203 9.41043 0.474938 9.05 0.540834L7.139 0.887834C6.6978 0.968855 6.29665 1.19585 6 1.53233C5.70258 1.19527 5.30028 0.968223 4.858 0.887834L2.95 0.540834C2.58958 0.47488 2.21907 0.488959 1.86469 0.582071C1.51031 0.675184 1.18073 0.845055 0.899283 1.07966C0.617833 1.31427 0.391393 1.60787 0.235991 1.93969C0.0805891 2.27151 2.44062e-05 2.63343 0 2.99983L0 8.39633C2.87279e-05 8.98173 0.205488 9.54856 0.580567 9.99802C0.955645 10.4475 1.47655 10.751 2.0525 10.8558L5.1955 11.4273C5.72748 11.524 6.27252 11.524 6.8045 11.4273L9.95 10.8558C10.5255 10.7505 11.0458 10.4467 11.4204 9.99732C11.795 9.54792 12.0001 8.98138 12 8.39633V2.99983C12.0002 2.63356 11.9197 2.27173 11.7641 1.94013C11.6086 1.60853 11.3818 1.3153 11.1 1.08133ZM5.5 10.4638C5.458 10.4578 5.416 10.4508 5.374 10.4433L2.2315 9.87233C1.88588 9.80945 1.5733 9.62726 1.34824 9.35753C1.12319 9.08779 0.999947 8.74763 1 8.39633V2.99983C1 2.60201 1.15804 2.22048 1.43934 1.93917C1.72064 1.65787 2.10218 1.49983 2.5 1.49983C2.59055 1.50005 2.6809 1.50825 2.77 1.52433L4.68 1.87433C4.90981 1.91639 5.11764 2.03757 5.26742 2.21686C5.41721 2.39614 5.49949 2.62221 5.5 2.85583V10.4638ZM11 8.39633C11.0001 8.74763 10.8768 9.08779 10.6518 9.35753C10.4267 9.62726 10.1141 9.80945 9.7685 9.87233L6.626 10.4433C6.584 10.4508 6.542 10.4578 6.5 10.4638V2.85583C6.49997 2.62164 6.58213 2.39486 6.73216 2.21504C6.8822 2.03521 7.09059 1.91375 7.321 1.87183L9.2315 1.52183C9.44786 1.48247 9.67023 1.49116 9.88286 1.54729C10.0955 1.60342 10.2932 1.70561 10.4619 1.84664C10.6307 1.98766 10.7663 2.16406 10.8593 2.36335C10.9523 2.56263 11.0003 2.77992 11 2.99983V8.39633Z" fill="#141414"/>
</svg>
