<svg width="21" height="22" viewBox="0 0 21 22" fill="none" xmlns="http://www.w3.org/2000/svg">
<rect y="0.5" width="21" height="21" rx="6" fill="white"/>
<path d="M13.4999 7.99991C13.4061 7.90617 13.279 7.85352 13.1464 7.85352C13.0138 7.85352 12.8867 7.90617 12.7929 7.99991L10.4999 10.2929L8.20691 7.99991C8.11315 7.90617 7.98599 7.85352 7.85341 7.85352C7.72083 7.85352 7.59367 7.90617 7.49991 7.99991C7.40617 8.09367 7.35352 8.22083 7.35352 8.35341C7.35352 8.48599 7.40617 8.61315 7.49991 8.70691L9.79291 10.9999L7.49991 13.2929C7.40617 13.3867 7.35352 13.5138 7.35352 13.6464C7.35352 13.779 7.40617 13.9061 7.49991 13.9999C7.59367 14.0936 7.72083 14.1463 7.85341 14.1463C7.98599 14.1463 8.11315 14.0936 8.20691 13.9999L10.4999 11.7069L12.7929 13.9999C12.8867 14.0936 13.0138 14.1463 13.1464 14.1463C13.279 14.1463 13.4061 14.0936 13.4999 13.9999C13.5936 13.9061 13.6463 13.779 13.6463 13.6464C13.6463 13.5138 13.5936 13.3867 13.4999 13.2929L11.2069 10.9999L13.4999 8.70691C13.5936 8.61315 13.6463 8.48599 13.6463 8.35341C13.6463 8.22083 13.5936 8.09367 13.4999 7.99991Z" fill="#7939EF"/>
</svg>
