<svg width="8" height="8" viewBox="0 0 8 8" fill="none" xmlns="http://www.w3.org/2000/svg">
<g clip-path="url(#clip0_3153_38909)">
<path d="M5.3325 2.66693C5.26999 2.60444 5.18522 2.56934 5.09683 2.56934C5.00844 2.56934 4.92367 2.60444 4.86117 2.66693L3.99917 3.52893L3.13717 2.66693C3.0743 2.60621 2.9901 2.57261 2.9027 2.57337C2.8153 2.57413 2.7317 2.60919 2.6699 2.67099C2.60809 2.73279 2.57304 2.8164 2.57228 2.9038C2.57152 2.9912 2.60512 3.0754 2.66584 3.13826L3.52783 4.00026L2.66584 4.86226C2.60512 4.92513 2.57152 5.00933 2.57228 5.09673C2.57304 5.18413 2.60809 5.26773 2.6699 5.32954C2.7317 5.39134 2.8153 5.4264 2.9027 5.42716C2.9901 5.42792 3.0743 5.39432 3.13717 5.3336L3.99917 4.4716L4.86117 5.3336C4.92403 5.39432 5.00823 5.42792 5.09563 5.42716C5.18303 5.4264 5.26663 5.39134 5.32844 5.32954C5.39024 5.26773 5.4253 5.18413 5.42606 5.09673C5.42682 5.00933 5.39322 4.92513 5.3325 4.86226L4.4705 4.00026L5.3325 3.13826C5.39499 3.07576 5.43009 2.99099 5.43009 2.9026C5.43009 2.81421 5.39499 2.72944 5.3325 2.66693Z" fill="#141414"/>
<path d="M4 0C3.20888 0 2.43552 0.234596 1.77772 0.674122C1.11992 1.11365 0.607234 1.73836 0.304484 2.46927C0.00173314 3.20017 -0.0774802 4.00444 0.0768607 4.78036C0.231202 5.55629 0.612165 6.26902 1.17157 6.82843C1.73098 7.38784 2.44372 7.7688 3.21964 7.92314C3.99556 8.07748 4.79983 7.99827 5.53074 7.69552C6.26164 7.39277 6.88635 6.88008 7.32588 6.22228C7.76541 5.56449 8 4.79113 8 4C7.99886 2.93949 7.57706 1.92274 6.82716 1.17284C6.07727 0.422943 5.06052 0.00114703 4 0V0ZM4 7.33333C3.34073 7.33333 2.69626 7.13784 2.1481 6.77157C1.59994 6.40529 1.1727 5.8847 0.920403 5.27561C0.668111 4.66652 0.6021 3.9963 0.730718 3.3497C0.859335 2.7031 1.1768 2.10915 1.64298 1.64298C2.10915 1.1768 2.7031 0.859333 3.3497 0.730716C3.9963 0.602098 4.66653 0.66811 5.27561 0.920402C5.8847 1.17269 6.4053 1.59994 6.77157 2.1481C7.13784 2.69626 7.33334 3.34073 7.33334 4C7.33237 4.88376 6.98086 5.73104 6.35595 6.35595C5.73104 6.98086 4.88376 7.33236 4 7.33333Z" fill="#141414"/>
</g>
<defs>
<clipPath id="clip0_3153_38909">
<rect width="8" height="8" fill="white"/>
</clipPath>
</defs>
</svg>
