<svg width="9" height="10" viewBox="0 0 9 10" fill="none" xmlns="http://www.w3.org/2000/svg">
<path d="M8.13993 5.47325C8.07795 5.41077 8.00422 5.36117 7.92298 5.32732C7.84174 5.29348 7.7546 5.27605 7.66659 5.27605C7.57859 5.27605 7.49145 5.29348 7.41021 5.32732C7.32897 5.36117 7.25524 5.41077 7.19326 5.47325L4.99993 7.66659V0.999919C4.99993 0.823108 4.92969 0.653538 4.80467 0.528514C4.67964 0.40349 4.51007 0.333252 4.33326 0.333252C4.15645 0.333252 3.98688 0.40349 3.86186 0.528514C3.73683 0.653538 3.66659 0.823108 3.66659 0.999919V7.66659L1.47326 5.47325C1.41129 5.41077 1.33755 5.36117 1.25631 5.32732C1.17507 5.29348 1.08794 5.27605 0.999928 5.27605C0.91192 5.27605 0.824783 5.29348 0.743544 5.32732C0.662304 5.36117 0.58857 5.41077 0.526595 5.47325C0.402427 5.59816 0.332733 5.76713 0.332733 5.94325C0.332733 6.11938 0.402427 6.28834 0.526595 6.41325L3.39326 9.27325C3.64216 9.52364 3.98021 9.6651 4.33326 9.66659C4.684 9.66334 5.01933 9.52202 5.26659 9.27325L8.13326 6.41325C8.25832 6.28923 8.32921 6.12075 8.33046 5.94463C8.33171 5.7685 8.26321 5.59904 8.13993 5.47325Z" fill="white"/>
</svg>
