<svg width="20" height="20" viewBox="0 0 20 20" fill="none" xmlns="http://www.w3.org/2000/svg">
<rect width="20" height="20" rx="6" fill="white"/>
<path d="M13.3554 8.10493C13.3089 8.05807 13.2536 8.02087 13.1927 7.99548C13.1318 7.9701 13.0664 7.95703 13.0004 7.95703C12.9344 7.95703 12.869 7.9701 12.8081 7.99548C12.7472 8.02087 12.6919 8.05807 12.6454 8.10493L10.3554 10.3949C10.3089 10.4418 10.2536 10.479 10.1927 10.5044C10.1318 10.5298 10.0664 10.5428 10.0004 10.5428C9.93439 10.5428 9.86904 10.5298 9.80811 10.5044C9.74718 10.479 9.69188 10.4418 9.6454 10.3949L7.3554 8.10493C7.30891 8.05807 7.25361 8.02087 7.19268 7.99548C7.13176 7.9701 7.0664 7.95703 7.0004 7.95703C6.93439 7.95703 6.86904 7.9701 6.80811 7.99548C6.74718 8.02087 6.69188 8.05807 6.6454 8.10493C6.55227 8.19861 6.5 8.32534 6.5 8.45743C6.5 8.58952 6.55227 8.71625 6.6454 8.80993L8.9404 11.1049C9.22165 11.3858 9.6029 11.5436 10.0004 11.5436C10.3979 11.5436 10.7791 11.3858 11.0604 11.1049L13.3554 8.80993C13.4485 8.71625 13.5008 8.58952 13.5008 8.45743C13.5008 8.32534 13.4485 8.19861 13.3554 8.10493Z" fill="#141414"/>
</svg>
