<svg width="9" height="10" viewBox="0 0 9 10" fill="none" xmlns="http://www.w3.org/2000/svg">
<path d="M8.30622 5.47301C8.24424 5.41052 8.17051 5.36093 8.08927 5.32708C8.00803 5.29323 7.92089 5.27581 7.83288 5.27581C7.74488 5.27581 7.65774 5.29323 7.5765 5.32708C7.49526 5.36093 7.42153 5.41052 7.35955 5.47301L5.16622 7.66634V0.999674C5.16622 0.822863 5.09598 0.653294 4.97096 0.52827C4.84593 0.403246 4.67636 0.333008 4.49955 0.333008C4.32274 0.333008 4.15317 0.403246 4.02815 0.52827C3.90312 0.653294 3.83288 0.822863 3.83288 0.999674V7.66634L1.63955 5.47301C1.57758 5.41052 1.50384 5.36093 1.4226 5.32708C1.34136 5.29323 1.25423 5.27581 1.16622 5.27581C1.07821 5.27581 0.991073 5.29323 0.909834 5.32708C0.828594 5.36093 0.75486 5.41052 0.692885 5.47301C0.568718 5.59792 0.499023 5.76688 0.499023 5.94301C0.499023 6.11913 0.568718 6.2881 0.692885 6.41301L3.55955 9.27301C3.80845 9.5234 4.1465 9.66485 4.49955 9.66634C4.85029 9.6631 5.18562 9.52178 5.43288 9.27301L8.29955 6.41301C8.42461 6.28898 8.4955 6.12051 8.49675 5.94438C8.498 5.76826 8.4295 5.59879 8.30622 5.47301Z" fill="white"/>
</svg>
