<svg width="21" height="22" viewBox="0 0 21 22" fill="none" xmlns="http://www.w3.org/2000/svg">
<rect y="0.5" width="21" height="21" rx="6" fill="white"/>
<path d="M9.79993 11.3549C9.75307 11.3084 9.71587 11.2531 9.69048 11.1922C9.6651 11.1313 9.65203 11.0659 9.65203 10.9999C9.65203 10.9339 9.6651 10.8685 9.69048 10.8076C9.71587 10.7467 9.75307 10.6914 9.79993 10.6449L12.0949 8.35491C12.1418 8.30843 12.179 8.25313 12.2044 8.1922C12.2298 8.13127 12.2428 8.06591 12.2428 7.99991C12.2428 7.9339 12.2298 7.86855 12.2044 7.80762C12.179 7.74669 12.1418 7.69139 12.0949 7.64491C12.0012 7.55178 11.8745 7.49951 11.7424 7.49951C11.6103 7.49951 11.4836 7.55178 11.3899 7.64491L9.09493 9.93991C8.81403 10.2212 8.65625 10.6024 8.65625 10.9999C8.65625 11.3974 8.81403 11.7787 9.09493 12.0599L11.3899 14.3549C11.4831 14.4473 11.6088 14.4994 11.7399 14.4999C11.8057 14.5003 11.871 14.4877 11.9319 14.4628C11.9928 14.4379 12.0482 14.4012 12.0949 14.3549C12.1418 14.3084 12.179 14.2531 12.2044 14.1922C12.2298 14.1313 12.2428 14.0659 12.2428 13.9999C12.2428 13.9339 12.2298 13.8685 12.2044 13.8076C12.179 13.7467 12.1418 13.6914 12.0949 13.6449L9.79993 11.3549Z" fill="#7939EF"/>
</svg>
