<svg width="16" height="16" viewBox="0 0 16 16" fill="none" xmlns="http://www.w3.org/2000/svg">
<path d="M6.98657 12.6669C6.81168 12.6661 6.64408 12.5967 6.51991 12.4735L3.45991 9.41354C3.08537 9.03854 2.875 8.5302 2.875 8.0002C2.875 7.4702 3.08537 6.96187 3.45991 6.58687L6.51991 3.52687C6.64482 3.4027 6.81378 3.33301 6.98991 3.33301C7.16603 3.33301 7.335 3.4027 7.45991 3.52687C7.52239 3.58884 7.57199 3.66258 7.60584 3.74382C7.63968 3.82506 7.65711 3.91219 7.65711 4.0002C7.65711 4.08821 7.63968 4.17535 7.60584 4.25659C7.57199 4.33783 7.52239 4.41156 7.45991 4.47354L4.39991 7.52687C4.33742 7.58884 4.28783 7.66258 4.25398 7.74382C4.22013 7.82506 4.20271 7.9122 4.20271 8.0002C4.20271 8.08821 4.22013 8.17535 4.25398 8.25659C4.28783 8.33783 4.33742 8.41156 4.39991 8.47354L7.45991 11.5269C7.52239 11.5888 7.57199 11.6626 7.60584 11.7438C7.63968 11.8251 7.65711 11.9122 7.65711 12.0002C7.65711 12.0882 7.63968 12.1753 7.60584 12.2566C7.57199 12.3378 7.52239 12.4116 7.45991 12.4735C7.39761 12.5353 7.32374 12.5842 7.24251 12.6174C7.16129 12.6506 7.07431 12.6674 6.98657 12.6669Z" fill="white"/>
<path d="M11.6521 12.6669C11.4772 12.6661 11.3096 12.5967 11.1855 12.4735L7.18548 8.47354C7.12299 8.41156 7.0734 8.33783 7.03955 8.25659C7.00571 8.17535 6.98828 8.08821 6.98828 8.0002C6.98828 7.9122 7.00571 7.82506 7.03955 7.74382C7.0734 7.66258 7.12299 7.58884 7.18548 7.52687L11.1855 3.52687C11.3104 3.4027 11.4793 3.33301 11.6555 3.33301C11.8316 3.33301 12.0006 3.4027 12.1255 3.52687C12.188 3.58884 12.2376 3.66258 12.2714 3.74382C12.3052 3.82506 12.3227 3.91219 12.3227 4.0002C12.3227 4.08821 12.3052 4.17535 12.2714 4.25659C12.2376 4.33783 12.188 4.41156 12.1255 4.47354L8.59881 8.0002L12.1255 11.5269C12.188 11.5888 12.2376 11.6626 12.2714 11.7438C12.3052 11.8251 12.3227 11.9122 12.3227 12.0002C12.3227 12.0882 12.3052 12.1753 12.2714 12.2566C12.2376 12.3378 12.188 12.4116 12.1255 12.4735C12.0632 12.5353 11.9893 12.5842 11.9081 12.6174C11.8269 12.6506 11.7399 12.6674 11.6521 12.6669Z" fill="white"/>
</svg>
