<svg width="36" height="34" viewBox="0 0 36 34" fill="none" xmlns="http://www.w3.org/2000/svg">
<g filter="url(#filter0_b_924_29816)">
<rect width="36" height="34" rx="12" fill="#F0F0F0"/>
<g clip-path="url(#clip0_924_29816)">
<path d="M22.6667 9.6665H13.3333C12.4496 9.66756 11.6024 10.0191 10.9775 10.644C10.3526 11.2689 10.0011 12.1161 10 12.9998V20.9998C10.0011 21.8836 10.3526 22.7308 10.9775 23.3557C11.6024 23.9806 12.4496 24.3321 13.3333 24.3332H22.6667C23.5504 24.3321 24.3976 23.9806 25.0225 23.3557C25.6474 22.7308 25.9989 21.8836 26 20.9998V12.9998C25.9989 12.1161 25.6474 11.2689 25.0225 10.644C24.3976 10.0191 23.5504 9.66756 22.6667 9.6665ZM13.3333 10.9998H22.6667C23.0659 11.0006 23.4557 11.1208 23.786 11.345C24.1163 11.5692 24.3719 11.8871 24.52 12.2578L19.4147 17.3638C19.039 17.738 18.5303 17.9481 18 17.9481C17.4697 17.9481 16.961 17.738 16.5853 17.3638L11.48 12.2578C11.6281 11.8871 11.8837 11.5692 12.214 11.345C12.5443 11.1208 12.9341 11.0006 13.3333 10.9998ZM22.6667 22.9998H13.3333C12.8029 22.9998 12.2942 22.7891 11.9191 22.4141C11.544 22.039 11.3333 21.5303 11.3333 20.9998V13.9998L15.6427 18.3065C16.2684 18.9307 17.1162 19.2812 18 19.2812C18.8838 19.2812 19.7316 18.9307 20.3573 18.3065L24.6667 13.9998V20.9998C24.6667 21.5303 24.456 22.039 24.0809 22.4141C23.7058 22.7891 23.1971 22.9998 22.6667 22.9998Z" fill="#7939EF"/>
</g>
</g>
<defs>
<filter id="filter0_b_924_29816" x="-4.3" y="-4.3" width="44.6" height="42.6" filterUnits="userSpaceOnUse" color-interpolation-filters="sRGB">
<feFlood flood-opacity="0" result="BackgroundImageFix"/>
<feGaussianBlur in="BackgroundImageFix" stdDeviation="2.15"/>
<feComposite in2="SourceAlpha" operator="in" result="effect1_backgroundBlur_924_29816"/>
<feBlend mode="normal" in="SourceGraphic" in2="effect1_backgroundBlur_924_29816" result="shape"/>
</filter>
<clipPath id="clip0_924_29816">
<rect width="16" height="16" fill="white" transform="translate(10 9)"/>
</clipPath>
</defs>
</svg>
