<svg width="34" height="32" viewBox="0 0 34 32" fill="none" xmlns="http://www.w3.org/2000/svg">
<g clip-path="url(#clip0_1642_8001)">
<path d="M16.9993 21.3333C18.4133 21.3317 19.769 20.7693 20.7688 19.7695C21.7687 18.7696 22.3311 17.414 22.3327 16V13.3333C22.3327 11.9188 21.7708 10.5623 20.7706 9.5621C19.7704 8.5619 18.4138 8 16.9993 8C15.5849 8 14.2283 8.5619 13.2281 9.5621C12.2279 10.5623 11.666 11.9188 11.666 13.3333V16C11.6676 17.414 12.23 18.7696 13.2299 19.7695C14.2297 20.7693 15.5853 21.3317 16.9993 21.3333ZM16.9993 9.33333C17.9437 9.33509 18.8571 9.67058 19.578 10.2805C20.299 10.8905 20.7812 11.7356 20.9393 12.6667H18.9993C18.8225 12.6667 18.653 12.7369 18.5279 12.8619C18.4029 12.987 18.3327 13.1565 18.3327 13.3333C18.3327 13.5101 18.4029 13.6797 18.5279 13.8047C18.653 13.9298 18.8225 14 18.9993 14H20.9993V15.3333H18.9993C18.8225 15.3333 18.653 15.4036 18.5279 15.5286C18.4029 15.6536 18.3327 15.8232 18.3327 16C18.3327 16.1768 18.4029 16.3464 18.5279 16.4714C18.653 16.5964 18.8225 16.6667 18.9993 16.6667H20.9393C20.7827 17.5983 20.3009 18.4443 19.5796 19.0545C18.8583 19.6646 17.9441 19.9994 16.9993 19.9994C16.0546 19.9994 15.1404 19.6646 14.4191 19.0545C13.6978 18.4443 13.216 17.5983 13.0593 16.6667H14.9993C15.1762 16.6667 15.3457 16.5964 15.4708 16.4714C15.5958 16.3464 15.666 16.1768 15.666 16C15.666 15.8232 15.5958 15.6536 15.4708 15.5286C15.3457 15.4036 15.1762 15.3333 14.9993 15.3333H12.9993V14H14.9993C15.1762 14 15.3457 13.9298 15.4708 13.8047C15.5958 13.6797 15.666 13.5101 15.666 13.3333C15.666 13.1565 15.5958 12.987 15.4708 12.8619C15.3457 12.7369 15.1762 12.6667 14.9993 12.6667H13.0593C13.2175 11.7356 13.6997 10.8905 14.4207 10.2805C15.1416 9.67058 16.055 9.33509 16.9993 9.33333Z" fill="#8C8C8C"/>
<path d="M24.3333 16C24.1565 16 23.987 16.0702 23.8619 16.1953C23.7369 16.3203 23.6667 16.4899 23.6667 16.6667C23.6649 18.2574 23.0322 19.7825 21.9074 20.9074C20.7825 22.0322 19.2574 22.6649 17.6667 22.6667H16.3333C14.7426 22.6647 13.2176 22.032 12.0928 20.9072C10.968 19.7824 10.3353 18.2574 10.3333 16.6667C10.3333 16.4899 10.2631 16.3203 10.1381 16.1953C10.013 16.0702 9.84348 16 9.66667 16C9.48986 16 9.32029 16.0702 9.19526 16.1953C9.07024 16.3203 9 16.4899 9 16.6667C9.00229 18.6109 9.77565 20.4748 11.1504 21.8496C12.5252 23.2244 14.3891 23.9977 16.3333 24H17.6667C19.6109 23.9977 21.4748 23.2244 22.8496 21.8496C24.2244 20.4748 24.9977 18.6109 25 16.6667C25 16.4899 24.9298 16.3203 24.8047 16.1953C24.6797 16.0702 24.5101 16 24.3333 16Z" fill="#8C8C8C"/>
</g>
<defs>
<clipPath id="clip0_1642_8001">
<rect width="16" height="16" fill="white" transform="translate(9 8)"/>
</clipPath>
</defs>
</svg>
