<svg width="34" height="32" viewBox="0 0 34 32" fill="none" xmlns="http://www.w3.org/2000/svg">
<g clip-path="url(#clip0_1642_7996)">
<path d="M24.3333 15.3333H17.6667V8.66667C17.6667 8.48986 17.5964 8.32029 17.4714 8.19526C17.3464 8.07024 17.1768 8 17 8V8C16.8232 8 16.6536 8.07024 16.5286 8.19526C16.4036 8.32029 16.3333 8.48986 16.3333 8.66667V15.3333H9.66667C9.48986 15.3333 9.32029 15.4036 9.19526 15.5286C9.07024 15.6536 9 15.8232 9 16V16C9 16.1768 9.07024 16.3464 9.19526 16.4714C9.32029 16.5964 9.48986 16.6667 9.66667 16.6667H16.3333V23.3333C16.3333 23.5101 16.4036 23.6797 16.5286 23.8047C16.6536 23.9298 16.8232 24 17 24C17.1768 24 17.3464 23.9298 17.4714 23.8047C17.5964 23.6797 17.6667 23.5101 17.6667 23.3333V16.6667H24.3333C24.5101 16.6667 24.6797 16.5964 24.8047 16.4714C24.9298 16.3464 25 16.1768 25 16C25 15.8232 24.9298 15.6536 24.8047 15.5286C24.6797 15.4036 24.5101 15.3333 24.3333 15.3333Z" fill="#8C8C8C"/>
</g>
<defs>
<clipPath id="clip0_1642_7996">
<rect width="16" height="16" fill="white" transform="translate(9 8)"/>
</clipPath>
</defs>
</svg>
