<svg width="17" height="16" viewBox="0 0 17 16" fill="none" xmlns="http://www.w3.org/2000/svg">
<g clip-path="url(#clip0_2877_34243)">
<path d="M8.50079 1.33352C9.38512 1.33642 10.2601 1.51468 11.0751 1.85798C11.8901 2.20127 12.6289 2.7028 13.2488 3.33352H11.1675C10.9906 3.33352 10.8211 3.40376 10.696 3.52878C10.571 3.6538 10.5008 3.82337 10.5008 4.00018C10.5008 4.177 10.571 4.34656 10.696 4.47159C10.8211 4.59661 10.9906 4.66685 11.1675 4.66685H13.9295C14.2577 4.66667 14.5725 4.53619 14.8047 4.30405C15.0368 4.07192 15.1673 3.75714 15.1675 3.42885V0.666851C15.1675 0.49004 15.0972 0.32047 14.9722 0.195446C14.8472 0.0704219 14.6776 0.000183976 14.5008 0.000183976C14.324 0.000183976 14.1544 0.0704219 14.0294 0.195446C13.9044 0.32047 13.8341 0.49004 13.8341 0.666851V2.05218C12.7322 1.05982 11.3758 0.39379 9.91685 0.128683C8.45786 -0.136424 6.95387 0.00985861 5.57331 0.551149C4.19275 1.09244 2.99013 2.00736 2.10013 3.19347C1.21012 4.37957 0.667881 5.79001 0.534119 7.26685C0.525508 7.35969 0.53633 7.4533 0.565895 7.54173C0.595459 7.63015 0.643119 7.71145 0.705837 7.78044C0.768555 7.84943 0.844956 7.9046 0.930171 7.94243C1.01539 7.98027 1.10755 7.99994 1.20079 8.00019C1.36384 8.00226 1.52181 7.94341 1.64376 7.83515C1.76571 7.72689 1.84286 7.57701 1.86012 7.41485C2.00853 5.75535 2.7721 4.21132 4.00084 3.08608C5.22958 1.96083 6.83466 1.33571 8.50079 1.33352Z" fill="#8C8C8C"/>
<path d="M15.7994 8.00005C15.6363 7.99798 15.4783 8.05683 15.3564 8.16509C15.2344 8.27335 15.1573 8.42323 15.14 8.58539C15.0298 9.85421 14.558 11.0648 13.7805 12.0735C13.003 13.0823 11.9524 13.8468 10.7535 14.2764C9.55452 14.7061 8.25749 14.7828 7.01626 14.4975C5.77504 14.2122 4.64169 13.5768 3.7507 12.6667H5.83203C6.00884 12.6667 6.17841 12.5965 6.30344 12.4715C6.42846 12.3464 6.4987 12.1769 6.4987 12.0001C6.4987 11.8233 6.42846 11.6537 6.30344 11.5287C6.17841 11.4036 6.00884 11.3334 5.83203 11.3334H3.07003C2.90743 11.3333 2.74641 11.3653 2.59617 11.4275C2.44593 11.4896 2.30941 11.5808 2.19444 11.6958C2.07946 11.8108 1.98827 11.9473 1.92609 12.0975C1.86391 12.2478 1.83194 12.4088 1.83203 12.5714V15.3334C1.83203 15.5102 1.90227 15.6798 2.02729 15.8048C2.15232 15.9298 2.32189 16.0001 2.4987 16.0001C2.67551 16.0001 2.84508 15.9298 2.9701 15.8048C3.09513 15.6798 3.16536 15.5102 3.16536 15.3334V13.9481C4.26725 14.9404 5.62364 15.6065 7.08263 15.8716C8.54163 16.1367 10.0456 15.9904 11.4262 15.4491C12.8067 14.9078 14.0094 13.9929 14.8994 12.8068C15.7894 11.6207 16.3316 10.2102 16.4654 8.73339C16.474 8.64055 16.4632 8.54694 16.4336 8.45851C16.404 8.37008 16.3564 8.28879 16.2936 8.2198C16.2309 8.15081 16.1545 8.09564 16.0693 8.0578C15.9841 8.01997 15.8919 8.0003 15.7987 8.00005H15.7994Z" fill="#8C8C8C"/>
</g>
<defs>
<clipPath id="clip0_2877_34243">
<rect width="16" height="16" fill="white" transform="translate(0.5)"/>
</clipPath>
</defs>
</svg>
