<svg width="8" height="8" viewBox="0 0 8 8" fill="none" xmlns="http://www.w3.org/2000/svg">
<g clip-path="url(#clip0_3153_38862)">
<path d="M7.51166 2.81991C7.35717 2.66491 7.17349 2.5421 6.97123 2.45856C6.76897 2.37502 6.55215 2.33243 6.33332 2.33324H0.933322L2.36666 0.899907C2.42907 0.837228 2.46403 0.752322 2.46384 0.663867C2.46365 0.575412 2.42833 0.490655 2.36566 0.428241C2.30298 0.365827 2.21807 0.330868 2.12962 0.331055C2.04116 0.331243 1.9564 0.366561 1.89399 0.429241L0.243989 2.07891C0.0877628 2.23518 0 2.4471 0 2.66807C0 2.88904 0.0877628 3.10097 0.243989 3.25724L1.89399 4.90757C1.92494 4.93861 1.96169 4.96325 2.00216 4.98008C2.04263 4.99691 2.08602 5.0056 2.12985 5.00566C2.17368 5.00572 2.21709 4.99715 2.25761 4.98044C2.29813 4.96372 2.33495 4.93919 2.36599 4.90824C2.39702 4.87729 2.42166 4.84053 2.43849 4.80007C2.45532 4.7596 2.46401 4.71621 2.46408 4.67238C2.46414 4.62855 2.45557 4.58514 2.43885 4.54462C2.42214 4.5041 2.3976 4.46728 2.36666 4.43624L0.929322 2.99991H6.33332C6.59854 2.99991 6.85289 3.10526 7.04043 3.2928C7.22797 3.48034 7.33332 3.73469 7.33332 3.99991V6.33324C7.33332 6.59846 7.22797 6.85281 7.04043 7.04035C6.85289 7.22788 6.59854 7.33324 6.33332 7.33324H1.66666C1.57825 7.33324 1.49347 7.36836 1.43095 7.43087C1.36844 7.49338 1.33332 7.57817 1.33332 7.66657C1.33332 7.75498 1.36844 7.83976 1.43095 7.90228C1.49347 7.96479 1.57825 7.99991 1.66666 7.99991H6.33332C6.77519 7.99938 7.1988 7.82361 7.51125 7.51117C7.8237 7.19872 7.99946 6.7751 7.99999 6.33324V3.99991C8.00073 3.78069 7.95794 3.56351 7.87412 3.36095C7.79029 3.15839 7.66709 2.97449 7.51166 2.81991Z" fill="#8C8C8C"/>
</g>
<defs>
<clipPath id="clip0_3153_38862">
<rect width="8" height="8" fill="white"/>
</clipPath>
</defs>
</svg>
