<svg width="12" height="12" viewBox="0 0 12 12" fill="none" xmlns="http://www.w3.org/2000/svg">
<g clip-path="url(#clip0_3153_37690)">
<path d="M11.5007 11.9998C11.3681 11.9998 11.2409 11.9471 11.1471 11.8534C11.0534 11.7596 11.0007 11.6324 11.0007 11.4998C10.9999 10.7044 10.6836 9.9418 10.1211 9.37936C9.55869 8.81693 8.79609 8.5006 8.00068 8.49981H5.08568V9.29281C5.08564 9.49056 5.02697 9.68386 4.91708 9.84826C4.8072 10.0127 4.65103 10.1408 4.46833 10.2165C4.28563 10.2922 4.0846 10.312 3.89065 10.2734C3.6967 10.2348 3.51853 10.1396 3.37868 9.99981L0.43918 7.06031C0.157973 6.77902 0 6.39756 0 5.99981C0 5.60207 0.157973 5.2206 0.43918 4.93931L3.37868 1.99982C3.51853 1.86001 3.6967 1.7648 3.89065 1.72623C4.0846 1.68767 4.28563 1.70747 4.46833 1.78314C4.65103 1.85881 4.8072 1.98695 4.91708 2.15136C5.02697 2.31577 5.08564 2.50907 5.08568 2.70682V3.49982H7.50068C8.69375 3.50114 9.83757 3.97567 10.6812 4.8193C11.5248 5.66292 11.9994 6.80674 12.0007 7.99981V11.4998C12.0007 11.6324 11.948 11.7596 11.8542 11.8534C11.7605 11.9471 11.6333 11.9998 11.5007 11.9998ZM4.08568 2.70682L1.14618 5.64631C1.05244 5.74008 0.999787 5.86723 0.999787 5.99981C0.999787 6.13239 1.05244 6.25955 1.14618 6.35331L4.08568 9.29281V7.99981C4.08568 7.8672 4.13836 7.74003 4.23213 7.64626C4.32589 7.55249 4.45307 7.49981 4.58568 7.49981H8.00068C8.56848 7.49964 9.12977 7.6206 9.64711 7.8546C10.1644 8.08861 10.6259 8.43028 11.0007 8.85681V7.99981C10.9996 7.07188 10.6305 6.18226 9.97439 5.52611C9.31824 4.86996 8.42861 4.50087 7.50068 4.49981H4.58568C4.45307 4.49981 4.32589 4.44714 4.23213 4.35337C4.13836 4.2596 4.08568 4.13242 4.08568 3.99981V2.70682Z" fill="#141414"/>
</g>
<defs>
<clipPath id="clip0_3153_37690">
<rect width="12" height="12" fill="white"/>
</clipPath>
</defs>
</svg>
