<svg width="21" height="22" viewBox="0 0 21 22" fill="none" xmlns="http://www.w3.org/2000/svg">
<rect y="0.5" width="21" height="21" rx="6" fill="white"/>
<path d="M12.2006 9.93991L9.90563 7.64491C9.81195 7.55178 9.68523 7.49951 9.55313 7.49951C9.42104 7.49951 9.29431 7.55178 9.20063 7.64491C9.15377 7.69139 9.11657 7.74669 9.09119 7.80762C9.0658 7.86855 9.05273 7.9339 9.05273 7.99991C9.05273 8.06591 9.0658 8.13127 9.09119 8.1922C9.11657 8.25313 9.15377 8.30843 9.20063 8.35491L11.5006 10.6449C11.5475 10.6914 11.5847 10.7467 11.6101 10.8076C11.6355 10.8685 11.6485 10.9339 11.6485 10.9999C11.6485 11.0659 11.6355 11.1313 11.6101 11.1922C11.5847 11.2531 11.5475 11.3084 11.5006 11.3549L9.20063 13.6449C9.10648 13.7384 9.05332 13.8655 9.05286 13.9981C9.05239 14.1308 9.10465 14.2583 9.19813 14.3524C9.29162 14.4466 9.41868 14.4997 9.55137 14.5002C9.68405 14.5007 9.81148 14.4484 9.90563 14.3549L12.2006 12.0599C12.4815 11.7787 12.6393 11.3974 12.6393 10.9999C12.6393 10.6024 12.4815 10.2212 12.2006 9.93991Z" fill="#7939EF"/>
</svg>
