<svg width="16" height="16" viewBox="0 0 16 16" fill="none" xmlns="http://www.w3.org/2000/svg">
<path d="M8.73419 12.6669C8.60234 12.6663 8.47361 12.6267 8.36429 12.553C8.25497 12.4793 8.16996 12.3748 8.12001 12.2528C8.07006 12.1307 8.05741 11.9967 8.08367 11.8674C8.10992 11.7382 8.1739 11.6197 8.26752 11.5269L11.3342 8.47354C11.3967 8.41156 11.4463 8.33783 11.4801 8.25659C11.514 8.17535 11.5314 8.08821 11.5314 8.0002C11.5314 7.9122 11.514 7.82506 11.4801 7.74382C11.4463 7.66258 11.3967 7.58884 11.3342 7.52687L8.26752 4.47354C8.20503 4.41156 8.15544 4.33783 8.12159 4.25659C8.08774 4.17535 8.07032 4.08821 8.07032 4.0002C8.07032 3.91219 8.08774 3.82506 8.12159 3.74382C8.15544 3.66258 8.20503 3.58884 8.26752 3.52687C8.39243 3.4027 8.56139 3.33301 8.73752 3.33301C8.91364 3.33301 9.08261 3.4027 9.20752 3.52687L12.2675 6.58687C12.6421 6.96187 12.8524 7.4702 12.8524 8.0002C12.8524 8.5302 12.6421 9.03854 12.2675 9.41354L9.20752 12.4735C9.14523 12.5353 9.07135 12.5842 8.99012 12.6174C8.9089 12.6506 8.82192 12.6674 8.73419 12.6669Z" fill="white"/>
<path d="M4.06622 12.6669C3.93437 12.6663 3.80564 12.6267 3.69632 12.553C3.587 12.4793 3.50199 12.3748 3.45204 12.2528C3.40209 12.1307 3.38944 11.9967 3.4157 11.8674C3.44195 11.7382 3.50593 11.6197 3.59955 11.5269L7.12622 8.0002L3.59955 4.47354C3.53706 4.41156 3.48747 4.33783 3.45362 4.25659C3.41978 4.17535 3.40235 4.08821 3.40235 4.0002C3.40235 3.91219 3.41978 3.82506 3.45362 3.74382C3.48747 3.66258 3.53706 3.58884 3.59955 3.52687C3.72446 3.4027 3.89342 3.33301 4.06955 3.33301C4.24567 3.33301 4.41464 3.4027 4.53955 3.52687L8.53955 7.52687C8.60204 7.58884 8.65163 7.66258 8.68548 7.74382C8.71932 7.82506 8.73675 7.9122 8.73675 8.0002C8.73675 8.08821 8.71932 8.17535 8.68548 8.25659C8.65163 8.33783 8.60204 8.41156 8.53955 8.47354L4.53955 12.4735C4.47726 12.5353 4.40338 12.5842 4.32215 12.6174C4.24093 12.6506 4.15395 12.6674 4.06622 12.6669Z" fill="white"/>
</svg>
