<svg width="16" height="16" viewBox="0 0 16 16" fill="none" xmlns="http://www.w3.org/2000/svg">
<g clip-path="url(#clip0_819_4931)">
<path d="M15.4127 0.587602C15.1736 0.345687 14.8763 0.169506 14.5493 0.07608C14.2223 -0.0173459 13.8767 -0.0248582 13.546 0.054269L2.87932 2.30094C2.26504 2.38518 1.68648 2.63925 1.20879 3.03454C0.731101 3.42983 0.373262 3.95064 0.17557 4.53831C-0.0221223 5.12598 -0.0518154 5.75718 0.0898345 6.36081C0.231484 6.96445 0.538851 7.51655 0.97732 7.95494L2.12265 9.0996C2.18464 9.16157 2.2338 9.23516 2.26732 9.31615C2.30084 9.39714 2.31806 9.48395 2.31799 9.5716V11.6836C2.31946 11.9806 2.38782 12.2734 2.51799 12.5403L2.51265 12.5449L2.52999 12.5623C2.72533 12.955 3.04437 13.2727 3.43799 13.4663L3.45532 13.4836L3.45999 13.4783C3.72689 13.6084 4.0197 13.6768 4.31665 13.6783H6.42865C6.60535 13.6781 6.77488 13.7481 6.89999 13.8729L8.04465 15.0176C8.35167 15.328 8.71709 15.5746 9.11984 15.7431C9.5226 15.9117 9.95472 15.9988 10.3913 15.9996C10.7552 15.9992 11.1165 15.9397 11.4613 15.8236C12.0436 15.6324 12.5609 15.2823 12.9548 14.8127C13.3487 14.3432 13.6036 13.7729 13.6907 13.1663L15.9407 2.47627C16.0239 2.1427 16.019 1.79322 15.9264 1.46211C15.8339 1.13101 15.6568 0.829649 15.4127 0.587602ZM3.06665 8.15827L1.92065 7.0136C1.6538 6.75318 1.46677 6.42203 1.38151 6.05904C1.29625 5.69605 1.31631 5.31626 1.43932 4.96427C1.55858 4.60315 1.77906 4.28389 2.07452 4.04444C2.36998 3.805 2.728 3.65546 3.10599 3.6136L13.6667 1.39027L3.64999 11.4083V9.5716C3.651 9.30916 3.59996 9.04912 3.49983 8.80653C3.39971 8.56393 3.25247 8.3436 3.06665 8.15827ZM12.3807 12.9383C12.3295 13.3065 12.1767 13.6532 11.9394 13.9394C11.7021 14.2256 11.3898 14.44 11.0374 14.5585C10.685 14.677 10.3066 14.695 9.94461 14.6104C9.5826 14.5258 9.25133 14.342 8.98799 14.0796L7.84132 12.9329C7.65623 12.7468 7.43608 12.5993 7.1936 12.4988C6.95112 12.3983 6.69112 12.3469 6.42865 12.3476H4.59199L14.61 2.33294L12.3807 12.9383Z" fill="#141414"/>
</g>
<defs>
<clipPath id="clip0_819_4931">
<rect width="16" height="16" fill="white"/>
</clipPath>
</defs>
</svg>
