<svg width="17" height="16" viewBox="0 0 17 16" fill="none" xmlns="http://www.w3.org/2000/svg">
<g clip-path="url(#clip0_819_9197)">
<path d="M15.9126 0.587602C15.6736 0.345687 15.3762 0.169506 15.0492 0.07608C14.7222 -0.0173459 14.3767 -0.0248582 14.0459 0.054269L3.37926 2.30094C2.76498 2.38518 2.18641 2.63925 1.70873 3.03454C1.23104 3.42983 0.873201 3.95064 0.675509 4.53831C0.477817 5.12598 0.448124 5.75718 0.589773 6.36081C0.731423 6.96445 1.03879 7.51655 1.47726 7.95494L2.62259 9.0996C2.68458 9.16157 2.73374 9.23516 2.76726 9.31615C2.80078 9.39714 2.81799 9.48395 2.81793 9.5716V11.6836C2.8194 11.9806 2.88776 12.2734 3.01793 12.5403L3.01259 12.5449L3.02993 12.5623C3.22527 12.955 3.54431 13.2727 3.93793 13.4663L3.95526 13.4836L3.95993 13.4783C4.22683 13.6084 4.51964 13.6768 4.81659 13.6783H6.92859C7.10529 13.6781 7.27482 13.7481 7.39993 13.8729L8.54459 15.0176C8.85161 15.328 9.21702 15.5746 9.61978 15.7431C10.0225 15.9117 10.4547 15.9988 10.8913 15.9996C11.2551 15.9992 11.6164 15.9397 11.9613 15.8236C12.5436 15.6324 13.0608 15.2823 13.4547 14.8127C13.8487 14.3432 14.1035 13.7729 14.1906 13.1663L16.4406 2.47627C16.5238 2.1427 16.5189 1.79322 16.4264 1.46211C16.3338 1.13101 16.1567 0.829649 15.9126 0.587602ZM3.56659 8.15827L2.42059 7.0136C2.15374 6.75318 1.96671 6.42203 1.88145 6.05904C1.79619 5.69605 1.81625 5.31626 1.93926 4.96427C2.05852 4.60315 2.279 4.28389 2.57446 4.04444C2.86992 3.805 3.22793 3.65546 3.60593 3.6136L14.1666 1.39027L4.14993 11.4083V9.5716C4.15093 9.30916 4.0999 9.04912 3.99977 8.80653C3.89965 8.56393 3.75241 8.3436 3.56659 8.15827ZM12.8806 12.9383C12.8294 13.3065 12.6766 13.6532 12.4393 13.9394C12.2021 14.2256 11.8897 14.44 11.5373 14.5585C11.185 14.677 10.8066 14.695 10.4445 14.6104C10.0825 14.5258 9.75127 14.342 9.48793 14.0796L8.34126 12.9329C8.15617 12.7468 7.93602 12.5993 7.69354 12.4988C7.45106 12.3983 7.19106 12.3469 6.92859 12.3476H5.09193L15.1099 2.33294L12.8806 12.9383Z" fill="white"/>
</g>
<defs>
<clipPath id="clip0_819_9197">
<rect width="16" height="16" fill="white" transform="translate(0.5)"/>
</clipPath>
</defs>
</svg>
