<svg width="34" height="32" viewBox="0 0 34 32" fill="none" xmlns="http://www.w3.org/2000/svg">
<rect width="34" height="32" rx="12" fill="#7939EF"/>
<g clip-path="url(#clip0_1642_8005)">
<path d="M24.4128 8.58809C24.1738 8.34618 23.8765 8.16999 23.5495 8.07657C23.2225 7.98314 22.8769 7.97563 22.5462 8.05476L11.8795 10.3014C11.2652 10.3857 10.6867 10.6397 10.209 11.035C9.73128 11.4303 9.37344 11.9511 9.17575 12.5388C8.97806 13.1265 8.94837 13.7577 9.09002 14.3613C9.23167 14.9649 9.53903 15.517 9.9775 15.9554L11.1228 17.1001C11.1848 17.1621 11.234 17.2356 11.2675 17.3166C11.301 17.3976 11.3182 17.4844 11.3182 17.5721V19.6841C11.3196 19.981 11.388 20.2739 11.5182 20.5408L11.5128 20.5454L11.5302 20.5628C11.7255 20.9555 12.0446 21.2732 12.4382 21.4668L12.4555 21.4841L12.4602 21.4788C12.7271 21.6089 13.0199 21.6773 13.3168 21.6788H15.4288C15.6055 21.6786 15.7751 21.7486 15.9002 21.8734L17.0448 23.0181C17.3519 23.3285 17.7173 23.5751 18.12 23.7436C18.5228 23.9122 18.9549 23.9993 19.3915 24.0001C19.7553 23.9996 20.1167 23.9402 20.4615 23.8241C21.0438 23.6329 21.5611 23.2828 21.955 22.8132C22.3489 22.3437 22.6038 21.7734 22.6908 21.1668L24.9408 10.4768C25.0241 10.1432 25.0192 9.7937 24.9266 9.4626C24.834 9.13149 24.657 8.83014 24.4128 8.58809ZM12.0668 16.1588L10.9208 15.0141C10.654 14.7537 10.467 14.4225 10.3817 14.0595C10.2964 13.6965 10.3165 13.3168 10.4395 12.9648C10.5588 12.6036 10.7792 12.2844 11.0747 12.0449C11.3702 11.8055 11.7282 11.6559 12.1062 11.6141L22.6668 9.39076L12.6502 19.4088V17.5721C12.6512 17.3096 12.6001 17.0496 12.5 16.807C12.3999 16.5644 12.2527 16.3441 12.0668 16.1588ZM21.3808 20.9388C21.3296 21.307 21.1768 21.6537 20.9396 21.9398C20.7023 22.2261 20.39 22.4405 20.0376 22.559C19.6852 22.6775 19.3068 22.6955 18.9448 22.6109C18.5828 22.5263 18.2515 22.3425 17.9882 22.0801L16.8415 20.9334C16.6564 20.7473 16.4363 20.5998 16.1938 20.4993C15.9513 20.3988 15.6913 20.3474 15.4288 20.3481H13.5922L23.6102 10.3334L21.3808 20.9388Z" fill="white"/>
</g>
<defs>
<clipPath id="clip0_1642_8005">
<rect width="16" height="16" fill="white" transform="translate(9 8)"/>
</clipPath>
</defs>
</svg>
