<svg width="12" height="12" viewBox="0 0 12 12" fill="none" xmlns="http://www.w3.org/2000/svg">
<g clip-path="url(#clip0_2729_34429)">
<path d="M5.50389 1.28918L5.50039 9.00818C5.50039 9.14079 5.55307 9.26796 5.64684 9.36173C5.74061 9.4555 5.86778 9.50818 6.00039 9.50818C6.133 9.50818 6.26018 9.4555 6.35395 9.36173C6.44771 9.26796 6.50039 9.14079 6.50039 9.00818L6.50389 1.29768L7.95989 2.75418C8.05366 2.84792 8.18081 2.90057 8.31339 2.90057C8.44597 2.90057 8.57313 2.84792 8.66689 2.75418C8.76063 2.66042 8.81329 2.53326 8.81329 2.40068C8.81329 2.2681 8.76063 2.14094 8.66689 2.04718L7.06139 0.43968C6.92209 0.30029 6.75669 0.189715 6.57464 0.114273C6.39259 0.0388305 6.19746 0 6.00039 0C5.80333 0 5.6082 0.0388305 5.42615 0.114273C5.24409 0.189715 5.07869 0.30029 4.93939 0.43968L3.33389 2.04568C3.24016 2.13944 3.1875 2.2666 3.1875 2.39918C3.1875 2.53176 3.24016 2.65892 3.33389 2.75268C3.42766 2.84642 3.55481 2.89907 3.68739 2.89907C3.81998 2.89907 3.94713 2.84642 4.04089 2.75268L5.50389 1.28918Z" fill="#141414"/>
<path d="M11 8.5V10.5C11 10.6326 10.9473 10.7598 10.8536 10.8535C10.7598 10.9473 10.6326 11 10.5 11H1.5C1.36739 11 1.24021 10.9473 1.14645 10.8535C1.05268 10.7598 1 10.6326 1 10.5V8.5C1 8.36739 0.947322 8.24021 0.853553 8.14645C0.759785 8.05268 0.632608 8 0.5 8C0.367392 8 0.240215 8.05268 0.146447 8.14645C0.0526784 8.24021 0 8.36739 0 8.5L0 10.5C0 10.8978 0.158035 11.2793 0.43934 11.5607C0.720644 11.842 1.10218 12 1.5 12H10.5C10.8978 12 11.2794 11.842 11.5607 11.5607C11.842 11.2793 12 10.8978 12 10.5V8.5C12 8.36739 11.9473 8.24021 11.8536 8.14645C11.7598 8.05268 11.6326 8 11.5 8C11.3674 8 11.2402 8.05268 11.1464 8.14645C11.0527 8.24021 11 8.36739 11 8.5Z" fill="#141414"/>
</g>
<defs>
<clipPath id="clip0_2729_34429">
<rect width="12" height="12" fill="white"/>
</clipPath>
</defs>
</svg>
