<svg width="12" height="12" viewBox="0 0 12 12" fill="none" xmlns="http://www.w3.org/2000/svg">
<g clip-path="url(#clip0_3337_20894)">
<path d="M9.5 0H2.5C1.83696 0 1.20107 0.263392 0.732233 0.732233C0.263392 1.20107 0 1.83696 0 2.5L0 9.5C0 9.8283 0.0646644 10.1534 0.190301 10.4567C0.315938 10.76 0.500087 11.0356 0.732233 11.2678C1.20107 11.7366 1.83696 12 2.5 12H9.5C9.8283 12 10.1534 11.9353 10.4567 11.8097C10.76 11.6841 11.0356 11.4999 11.2678 11.2678C11.4999 11.0356 11.6841 10.76 11.8097 10.4567C11.9353 10.1534 12 9.8283 12 9.5V2.5C12 2.1717 11.9353 1.84661 11.8097 1.54329C11.6841 1.23998 11.4999 0.964379 11.2678 0.732233C11.0356 0.500087 10.76 0.315938 10.4567 0.190301C10.1534 0.0646644 9.8283 0 9.5 0V0ZM11 9.5C11 9.89782 10.842 10.2794 10.5607 10.5607C10.2794 10.842 9.89782 11 9.5 11H2.5C2.10218 11 1.72064 10.842 1.43934 10.5607C1.15804 10.2794 1 9.89782 1 9.5V2.5C1 2.10218 1.15804 1.72064 1.43934 1.43934C1.72064 1.15804 2.10218 1 2.5 1H9.5C9.89782 1 10.2794 1.15804 10.5607 1.43934C10.842 1.72064 11 2.10218 11 2.5V9.5Z" fill="#141414"/>
</g>
<defs>
<clipPath id="clip0_3337_20894">
<rect width="12" height="12" fill="white"/>
</clipPath>
</defs>
</svg>
