<svg width="12" height="12" viewBox="0 0 12 12" fill="none" xmlns="http://www.w3.org/2000/svg">
<path d="M11.9176 4.39673C11.8153 4.07118 11.611 3.78719 11.3348 3.58675C11.0587 3.38631 10.7253 3.28007 10.3841 3.28373H8.19961L7.53611 1.21573C7.43177 0.890212 7.22674 0.60624 6.95059 0.404766C6.67444 0.203291 6.34144 0.0947266 5.99961 0.0947266C5.65777 0.0947266 5.32477 0.203291 5.04862 0.404766C4.77247 0.60624 4.56745 0.890212 4.46311 1.21573L3.79961 3.28373H1.61511C1.27498 3.28422 0.943704 3.39218 0.668598 3.59219C0.393492 3.7922 0.188629 4.07403 0.0832689 4.39743C-0.0220908 4.72083 -0.0225571 5.06925 0.0819365 5.39293C0.18643 5.71661 0.390539 5.99899 0.665108 6.19973L2.44311 7.49973L1.76711 9.59323C1.65786 9.91793 1.65648 10.2692 1.76316 10.5948C1.86985 10.9203 2.07888 11.2027 2.35911 11.3997C2.63453 11.6031 2.9683 11.7121 3.31068 11.7104C3.65307 11.7087 3.98573 11.5964 4.25911 11.3902L5.99961 10.1092L7.74061 11.3887C8.01554 11.591 8.34751 11.7008 8.68879 11.7025C9.03008 11.7041 9.36311 11.5975 9.63999 11.398C9.91688 11.1985 10.1234 10.9163 10.2298 10.592C10.3361 10.2677 10.337 9.91802 10.2321 9.59323L9.55611 7.49973L11.3361 6.19973C11.6138 6.00151 11.8203 5.71913 11.925 5.39441C12.0298 5.06968 12.0272 4.71986 11.9176 4.39673ZM10.7461 5.39223L8.67411 6.90673C8.589 6.96882 8.52568 7.0562 8.49318 7.1564C8.46067 7.2566 8.46065 7.36452 8.49311 7.46473L9.28061 9.89973C9.32046 10.0232 9.32012 10.1562 9.27964 10.2795C9.23916 10.4028 9.16062 10.5101 9.05532 10.5859C8.95002 10.6618 8.82339 10.7023 8.69361 10.7016C8.56384 10.701 8.43763 10.6592 8.33311 10.5822L6.29561 9.08223C6.20979 9.0192 6.10609 8.9852 5.99961 8.9852C5.89313 8.9852 5.78943 9.0192 5.70361 9.08223L3.66611 10.5822C3.56165 10.6602 3.43508 10.7029 3.30474 10.704C3.1744 10.7052 3.04708 10.6649 2.94122 10.5888C2.83537 10.5128 2.75648 10.405 2.71601 10.2811C2.67553 10.1572 2.67557 10.0236 2.71611 9.89973L3.50611 7.46473C3.53857 7.36452 3.53854 7.2566 3.50604 7.1564C3.47354 7.0562 3.41021 6.96882 3.32511 6.90673L1.25311 5.39223C1.14876 5.31583 1.07123 5.20841 1.03158 5.08531C0.991932 4.9622 0.992202 4.82972 1.03235 4.70678C1.0725 4.58384 1.15047 4.47674 1.25513 4.40076C1.35979 4.32478 1.48578 4.28382 1.61511 4.28373H4.16511C4.27097 4.28373 4.37409 4.25013 4.45963 4.18777C4.54517 4.12541 4.60872 4.03751 4.64111 3.93673L5.41611 1.52123C5.45589 1.39763 5.53386 1.28983 5.63881 1.21336C5.74375 1.13689 5.87026 1.09569 6.00011 1.09569C6.12996 1.09569 6.25646 1.13689 6.36141 1.21336C6.46635 1.28983 6.54433 1.39763 6.58411 1.52123L7.35911 3.93673C7.3915 4.03751 7.45504 4.12541 7.54058 4.18777C7.62613 4.25013 7.72925 4.28373 7.83511 4.28373H10.3851C10.5144 4.28382 10.6404 4.32478 10.7451 4.40076C10.8497 4.47674 10.9277 4.58384 10.9679 4.70678C11.008 4.82972 11.0083 4.9622 10.9686 5.08531C10.929 5.20841 10.8515 5.31583 10.7471 5.39223H10.7461Z" fill="#141414"/>
</svg>
