<svg width="17" height="16" viewBox="0 0 17 16" fill="none" xmlns="http://www.w3.org/2000/svg">
<g clip-path="url(#clip0_2877_34250)">
<path d="M16.4673 8.2L15.9973 4.86667C15.8818 4.07329 15.4855 3.34767 14.8805 2.82164C14.2754 2.29562 13.5017 2.00408 12.7 2H3.83333C2.9496 2.00106 2.10237 2.35259 1.47748 2.97748C0.852588 3.60237 0.501059 4.4496 0.5 5.33333L0.5 8.66667C0.501059 9.5504 0.852588 10.3976 1.47748 11.0225C2.10237 11.6474 2.9496 11.9989 3.83333 12H5.64133L6.91733 14.5853C7.13184 15.0211 7.49584 15.3652 7.94292 15.5549C8.39 15.7446 8.89038 15.7673 9.3528 15.6188C9.81522 15.4703 10.2089 15.1606 10.4619 14.746C10.715 14.3315 10.8106 13.8398 10.7313 13.3607L10.5073 12H13.1667C13.6439 12 14.1155 11.8976 14.5497 11.6996C14.9838 11.5017 15.3705 11.2128 15.6834 10.8525C15.9963 10.4923 16.2282 10.069 16.3635 9.61142C16.4987 9.1538 16.5341 8.67248 16.4673 8.2ZM3.83333 3.33333H5.16667V10.6667H3.83333C3.3029 10.6667 2.79419 10.456 2.41912 10.0809C2.04405 9.70581 1.83333 9.1971 1.83333 8.66667V5.33333C1.83333 4.8029 2.04405 4.29419 2.41912 3.91912C2.79419 3.54405 3.3029 3.33333 3.83333 3.33333ZM14.676 9.97867C14.4883 10.1946 14.2564 10.3678 13.996 10.4865C13.7356 10.6052 13.4528 10.6666 13.1667 10.6667H9.722C9.6253 10.6666 9.52976 10.6877 9.442 10.7283C9.35423 10.7688 9.27635 10.828 9.21375 10.9017C9.15115 10.9754 9.10533 11.0619 9.07947 11.1551C9.05362 11.2482 9.04834 11.3459 9.064 11.4413L9.416 13.5747C9.43291 13.6737 9.42775 13.7752 9.4009 13.872C9.37405 13.9688 9.32617 14.0585 9.26067 14.1347C9.18387 14.2175 9.08851 14.2808 8.98244 14.3196C8.87637 14.3583 8.76261 14.3713 8.65053 14.3575C8.53845 14.3437 8.43124 14.3035 8.33774 14.2402C8.24423 14.1769 8.16709 14.0923 8.11267 13.9933L6.65333 11.0387C6.61484 10.9648 6.56283 10.8987 6.5 10.844V3.33333H12.7C13.1815 3.33509 13.6464 3.50982 14.0098 3.82567C14.3733 4.14151 14.6111 4.57744 14.68 5.054L15.1507 8.38733C15.1901 8.6711 15.1682 8.96004 15.0863 9.23459C15.0044 9.50914 14.8645 9.76289 14.676 9.97867Z" fill="#8C8C8C"/>
</g>
<defs>
<clipPath id="clip0_2877_34250">
<rect width="16" height="16" fill="white" transform="translate(0.5)"/>
</clipPath>
</defs>
</svg>
