<svg width="17" height="16" viewBox="0 0 17 16" fill="none" xmlns="http://www.w3.org/2000/svg">
<g clip-path="url(#clip0_2877_34247)">
<path d="M15.682 5.14775C15.3694 4.78749 14.983 4.4986 14.5491 4.30065C14.1151 4.1027 13.6437 4.00031 13.1667 4.00041H10.5073L10.7313 2.63975C10.8106 2.16059 10.715 1.6689 10.4619 1.25437C10.2088 0.839844 9.81521 0.53009 9.3528 0.381609C8.89038 0.233128 8.39 0.255815 7.94292 0.445531C7.49584 0.635247 7.13184 0.979351 6.91733 1.41508L5.64133 4.00041H3.83333C2.9496 4.00147 2.10237 4.353 1.47748 4.97789C0.852588 5.60279 0.501059 6.45002 0.5 7.33375L0.5 10.6671C0.501059 11.5508 0.852588 12.398 1.47748 13.0229C2.10237 13.6478 2.9496 13.9994 3.83333 14.0004H12.7C13.5023 13.9971 14.2768 13.706 14.8825 13.1799C15.4883 12.6538 15.8851 11.9277 16.0007 11.1337L16.4707 7.80041C16.5369 7.32757 16.5007 6.84602 16.3646 6.38837C16.2286 5.93071 15.9958 5.50763 15.682 5.14775ZM1.83333 10.6671V7.33375C1.83333 6.80332 2.04405 6.29461 2.41912 5.91953C2.79419 5.54446 3.3029 5.33375 3.83333 5.33375H5.16667V12.6671H3.83333C3.3029 12.6671 2.79419 12.4564 2.41912 12.0813C2.04405 11.7062 1.83333 11.1975 1.83333 10.6671ZM15.1473 7.61308L14.6767 10.9464C14.6079 11.4224 14.3705 11.8579 14.0077 12.1737C13.645 12.4894 13.1809 12.6645 12.7 12.6671H6.5V5.15641C6.56283 5.10168 6.61484 5.03565 6.65333 4.96175L8.11267 2.00508C8.16739 1.90637 8.24476 1.82205 8.33842 1.75906C8.43207 1.69606 8.53934 1.65619 8.6514 1.64272C8.76346 1.62925 8.87712 1.64256 8.98304 1.68157C9.08896 1.72057 9.1841 1.78415 9.26067 1.86708C9.32617 1.94325 9.37405 2.03293 9.4009 2.12973C9.42775 2.22653 9.43291 2.32806 9.416 2.42708L9.064 4.56041C9.04855 4.65574 9.05399 4.75327 9.07995 4.84628C9.10591 4.93929 9.15176 5.02556 9.21433 5.0991C9.27691 5.17265 9.35472 5.23172 9.44237 5.27223C9.53003 5.31275 9.62544 5.33374 9.722 5.33375H13.1667C13.4529 5.33371 13.7359 5.39512 13.9964 5.51384C14.2569 5.63256 14.4888 5.80582 14.6766 6.0219C14.8644 6.23799 15.0036 6.49186 15.0848 6.76637C15.166 7.04088 15.1873 7.32962 15.1473 7.61308Z" fill="#8C8C8C"/>
</g>
<defs>
<clipPath id="clip0_2877_34247">
<rect width="16" height="16" fill="white" transform="translate(0.5)"/>
</clipPath>
</defs>
</svg>
