<svg width="20" height="20" viewBox="0 0 20 20" fill="none" xmlns="http://www.w3.org/2000/svg">
<rect width="20" height="20" rx="6" fill="white"/>
<path d="M13.0001 11.7499C12.9343 11.7503 12.8691 11.7377 12.8081 11.7128C12.7472 11.6879 12.6918 11.6512 12.6451 11.6049L10.3551 9.30991C10.3086 9.26304 10.2533 9.22585 10.1924 9.20046C10.1315 9.17508 10.0661 9.16201 10.0001 9.16201C9.93409 9.16201 9.86873 9.17508 9.8078 9.20046C9.74687 9.22585 9.69157 9.26304 9.64509 9.30991L7.35509 11.6049C7.26094 11.6991 7.13324 11.7519 7.00009 11.7519C6.86694 11.7519 6.73924 11.6991 6.64509 11.6049C6.55094 11.5108 6.49805 11.3831 6.49805 11.2499C6.49805 11.184 6.51103 11.1187 6.53626 11.0578C6.56149 10.9969 6.59847 10.9415 6.64509 10.8949L8.94009 8.60491C9.22506 8.33113 9.60491 8.17822 10.0001 8.17822C10.3953 8.17822 10.7751 8.33113 11.0601 8.60491L13.3551 10.8949C13.402 10.9414 13.4392 10.9967 13.4645 11.0576C13.4899 11.1185 13.503 11.1839 13.503 11.2499C13.503 11.3159 13.4899 11.3813 13.4645 11.4422C13.4392 11.5031 13.402 11.5584 13.3551 11.6049C13.3084 11.6512 13.253 11.6879 13.192 11.7128C13.1311 11.7377 13.0659 11.7503 13.0001 11.7499Z" fill="#141414"/>
</svg>
