<svg width="16" height="16" viewBox="0 0 16 16" fill="none" xmlns="http://www.w3.org/2000/svg">
<path d="M14.6413 8.58333C14.5127 10.1032 13.8684 11.5335 12.8152 12.6368C11.762 13.7401 10.3632 14.4502 8.85097 14.6493C7.33871 14.8483 5.80384 14.5244 4.50101 13.7311C3.19818 12.9379 2.20571 11.7231 1.68826 10.2882C1.1708 8.85338 1.15946 7.28474 1.65611 5.84255C2.15277 4.40037 3.12757 3.17133 4.41879 2.35934C5.71001 1.54735 7.24003 1.20123 8.75502 1.37839C10.27 1.55555 11.6789 2.24534 12.7479 3.33333H10.6666C10.4898 3.33333 10.3202 3.40357 10.1952 3.5286C10.0702 3.65362 9.99993 3.82319 9.99993 4C9.99993 4.17681 10.0702 4.34638 10.1952 4.4714C10.3202 4.59643 10.4898 4.66667 10.6666 4.66667H13.4286C13.7569 4.66649 14.0717 4.536 14.3038 4.30387C14.5359 4.07174 14.6664 3.75695 14.6666 3.42867V0.666667C14.6666 0.489856 14.5964 0.320286 14.4713 0.195262C14.3463 0.0702379 14.1767 0 13.9999 0V0C13.8231 0 13.6535 0.0702379 13.5285 0.195262C13.4035 0.320286 13.3333 0.489856 13.3333 0.666667V2.052C11.9924 0.853819 10.2865 0.142989 8.49157 0.0344742C6.69663 -0.0740408 4.91756 0.426105 3.44209 1.45402C1.96663 2.48194 0.881053 3.97752 0.360933 5.69888C-0.159187 7.42024 -0.0834346 9.26672 0.575938 10.9397C1.23531 12.6127 2.43975 14.0143 3.99445 14.9179C5.54916 15.8215 7.36322 16.1742 9.14324 15.9191C10.9233 15.6639 12.5652 14.8157 13.8034 13.5117C15.0416 12.2077 15.8038 10.5242 15.9666 8.73333C15.9752 8.6405 15.9644 8.54688 15.9348 8.45846C15.9053 8.37003 15.8576 8.28873 15.7949 8.21974C15.7322 8.15075 15.6558 8.09558 15.5705 8.05775C15.4853 8.01992 15.3932 8.00025 15.2999 8C15.1373 7.99804 14.9798 8.05669 14.858 8.16452C14.7362 8.27236 14.659 8.42165 14.6413 8.58333Z" fill="#7939EF"/>
</svg>
